<svg width="40" height="40" viewBox="0 0 40 40" fill="none" xmlns="http://www.w3.org/2000/svg">
<path d="M11.25 6.23125V33.7687C11.2541 33.9885 11.316 34.2033 11.4296 34.3914C11.5432 34.5796 11.7043 34.7345 11.8969 34.8405C12.0894 34.9465 12.3065 34.9999 12.5262 34.9953C12.7459 34.9906 12.9606 34.9281 13.1484 34.8141L35.6609 21.0453C35.8408 20.9365 35.9895 20.7831 36.0927 20.6C36.1959 20.4168 36.2501 20.2102 36.2501 20C36.2501 19.7898 36.1959 19.5832 36.0927 19.4C35.9895 19.2169 35.8408 19.0635 35.6609 18.9547L13.1484 5.18594C12.9606 5.07189 12.7459 5.00939 12.5262 5.00474C12.3065 5.0001 12.0894 5.05347 11.8969 5.15948C11.7043 5.26549 11.5432 5.42039 11.4296 5.60855C11.316 5.79672 11.2541 6.0115 11.25 6.23125Z" stroke="white" stroke-width="4" stroke-linecap="round" stroke-linejoin="round"/>
</svg>
